#include "notes.h"

//Mario main theme melody
int melody[] = {
	NOTE_E7, NOTE_E7, 0, NOTE_E7,
	0, NOTE_C7, NOTE_E7, 0,
	NOTE_G7, 0, 0,  0,
	NOTE_G6, 0, 0, 0,
	
	NOTE_C7, 0, 0, NOTE_G6,
	0, 0, NOTE_E6, 0,
	0, NOTE_A6, 0, NOTE_B6,
	0, NOTE_AS6, NOTE_A6, 0,
	
	NOTE_G6, NOTE_E7, NOTE_G7,
	NOTE_A7, 0, NOTE_F7, NOTE_G7,
	0, NOTE_E7, 0, NOTE_C7,
	NOTE_D7, NOTE_B6, 0, 0,
	
	NOTE_C7, 0, 0, NOTE_G6,
	0, 0, NOTE_E6, 0,
	0, NOTE_A6, 0, NOTE_B6,
	0, NOTE_AS6, NOTE_A6, 0,
	
	NOTE_G6, NOTE_E7, NOTE_G7,
	NOTE_A7, 0, NOTE_F7, NOTE_G7,
	0, NOTE_E7, 0, NOTE_C7,
	NOTE_D7, NOTE_B6, 0, 0
};
//Mario main them tempo
int tempo[] = {
	12, 12, 12, 12,
	12, 12, 12, 12,
	12, 12, 12, 12,
	12, 12, 12, 12,
	
	12, 12, 12, 12,
	12, 12, 12, 12,
	12, 12, 12, 12,
	12, 12, 12, 12,
	
	9, 9, 9,
	12, 12, 12, 12,
	12, 12, 12, 12,
	12, 12, 12, 12,
	
	12, 12, 12, 12,
	12, 12, 12, 12,
	12, 12, 12, 12,
	12, 12, 12, 12,
	
	9, 9, 9,
	12, 12, 12, 12,
	12, 12, 12, 12,
	12, 12, 12, 12,
};
//Underworld melody
int underworld_melody[] = {
	NOTE_C4, NOTE_C5, NOTE_A3, NOTE_A4,
	NOTE_AS3, NOTE_AS4, 0,
	0,
	NOTE_C4, NOTE_C5, NOTE_A3, NOTE_A4,
	NOTE_AS3, NOTE_AS4, 0,
	0,
	NOTE_F3, NOTE_F4, NOTE_D3, NOTE_D4,
	NOTE_DS3, NOTE_DS4, 0,
	0,
	NOTE_F3, NOTE_F4, NOTE_D3, NOTE_D4,
	NOTE_DS3, NOTE_DS4, 0,
	0, NOTE_DS4, NOTE_CS4, NOTE_D4,
	NOTE_CS4, NOTE_DS4,
	NOTE_DS4, NOTE_GS3,
	NOTE_G3, NOTE_CS4,
	NOTE_C4, NOTE_FS4, NOTE_F4, NOTE_E3, NOTE_AS4, NOTE_A4,
	NOTE_GS4, NOTE_DS4, NOTE_B3,
	NOTE_AS3, NOTE_A3, NOTE_GS3,
	0, 0, 0
};
//Underwolrd tempo
int underworld_tempo[] = {
	12, 12, 12, 12,
	12, 12, 6,
	3,
	12, 12, 12, 12,
	12, 12, 6,
	3,
	12, 12, 12, 12,
	12, 12, 6,
	3,
	12, 12, 12, 12,
	12, 12, 6,
	6, 18, 18, 18,
	6, 6,
	6, 6,
	6, 6,
	18, 18, 18, 18, 18, 18,
	10, 10, 10,
	10, 10, 10,
	3, 3, 3
};

// Pirates melody
int pirates_melody[] = {       //Note of the song, 0 is a rest/pulse
   NOTE_E4, NOTE_G4, NOTE_A4, NOTE_A4, 0, 
   NOTE_A4, NOTE_B4, NOTE_C5, NOTE_C5, 0, 
   NOTE_C5, NOTE_D5, NOTE_B4, NOTE_B4, 0,
   NOTE_A4, NOTE_G4, NOTE_A4, 0,
   
   NOTE_E4, NOTE_G4, NOTE_A4, NOTE_A4, 0, 
   NOTE_A4, NOTE_B4, NOTE_C5, NOTE_C5, 0, 
   NOTE_C5, NOTE_D5, NOTE_B4, NOTE_B4, 0,
   NOTE_A4, NOTE_G4, NOTE_A4, 0,
   
   NOTE_E4, NOTE_G4, NOTE_A4, NOTE_A4, 0, 
   NOTE_A4, NOTE_C5, NOTE_D5, NOTE_D5, 0, 
   NOTE_D5, NOTE_E5, NOTE_F5, NOTE_F5, 0,
   NOTE_E5, NOTE_D5, NOTE_E5, NOTE_A4, 0,
   
   NOTE_A4, NOTE_B4, NOTE_C5, NOTE_C5, 0, 
   NOTE_D5, NOTE_E5, NOTE_A4, 0, 
   NOTE_A4, NOTE_C5, NOTE_B4, NOTE_B4, 0,
   NOTE_C5, NOTE_A4, NOTE_B4, 0,

   NOTE_A4, NOTE_A4, 
   //Repeat of first part
   NOTE_A4, NOTE_B4, NOTE_C5, NOTE_C5, 0, 
   NOTE_C5, NOTE_D5, NOTE_B4, NOTE_B4, 0,
   NOTE_A4, NOTE_G4, NOTE_A4, 0,

   NOTE_E4, NOTE_G4, NOTE_A4, NOTE_A4, 0, 
   NOTE_A4, NOTE_B4, NOTE_C5, NOTE_C5, 0, 
   NOTE_C5, NOTE_D5, NOTE_B4, NOTE_B4, 0,
   NOTE_A4, NOTE_G4, NOTE_A4, 0,
   
   NOTE_E4, NOTE_G4, NOTE_A4, NOTE_A4, 0, 
   NOTE_A4, NOTE_C5, NOTE_D5, NOTE_D5, 0, 
   NOTE_D5, NOTE_E5, NOTE_F5, NOTE_F5, 0,
   NOTE_E5, NOTE_D5, NOTE_E5, NOTE_A4, 0,
   
   NOTE_A4, NOTE_B4, NOTE_C5, NOTE_C5, 0, 
   NOTE_D5, NOTE_E5, NOTE_A4, 0, 
   NOTE_A4, NOTE_C5, NOTE_B4, NOTE_B4, 0,
   NOTE_C5, NOTE_A4, NOTE_B4, 0,
   //End of Repeat

   NOTE_E5, 0, 0, NOTE_F5, 0, 0,
   NOTE_E5, NOTE_E5, 0, NOTE_G5, 0, NOTE_E5, NOTE_D5, 0, 0,
   NOTE_D5, 0, 0, NOTE_C5, 0, 0,
   NOTE_B4, NOTE_C5, 0, NOTE_B4, 0, NOTE_A4,

   NOTE_E5, 0, 0, NOTE_F5, 0, 0,
   NOTE_E5, NOTE_E5, 0, NOTE_G5, 0, NOTE_E5, NOTE_D5, 0, 0,
   NOTE_D5, 0, 0, NOTE_C5, 0, 0,
   NOTE_B4, NOTE_C5, 0, NOTE_B4, 0, NOTE_A4
};

// Pirates tempo
int pirates_tempo[] = {
  125, 125, 250, 125, 125, 
  125, 125, 250, 125, 125,
  125, 125, 250, 125, 125,
  125, 125, 375, 125, 
  
  125, 125, 250, 125, 125, 
  125, 125, 250, 125, 125,
  125, 125, 250, 125, 125,
  125, 125, 375, 125, 
  
  125, 125, 250, 125, 125, 
  125, 125, 250, 125, 125,
  125, 125, 250, 125, 125,
  125, 125, 125, 250, 125,

  125, 125, 250, 125, 125, 
  250, 125, 250, 125, 
  125, 125, 250, 125, 125,
  125, 125, 375, 375,

  250, 125,
  //Rpeat of First Part
  125, 125, 250, 125, 125,
  125, 125, 250, 125, 125,
  125, 125, 375, 125, 
  
  125, 125, 250, 125, 125, 
  125, 125, 250, 125, 125,
  125, 125, 250, 125, 125,
  125, 125, 375, 125, 
  
  125, 125, 250, 125, 125, 
  125, 125, 250, 125, 125,
  125, 125, 250, 125, 125,
  125, 125, 125, 250, 125,

  125, 125, 250, 125, 125, 
  250, 125, 250, 125, 
  125, 125, 250, 125, 125,
  125, 125, 375, 375,
  //End of Repeat
  
  250, 125, 375, 250, 125, 375,
  125, 125, 125, 125, 125, 125, 125, 125, 375,
  250, 125, 375, 250, 125, 375,
  125, 125, 125, 125, 125, 500,

  250, 125, 375, 250, 125, 375,
  125, 125, 125, 125, 125, 125, 125, 125, 375,
  250, 125, 375, 250, 125, 375,
  125, 125, 125, 125, 125, 500
};